The Complete Season 1 in 720p Web-dl of The Legend Of Korra.

File Details of Episode 1

Format                           : Matroska
File size                        : 90.5 MiB
Duration                         : 23mn 23s
Overall bit rate                 : 541 Kbps

Video
ID                               : 1
Format                           : AVC
Format/Info                      : Advanced Video Codec
Format profile                   : High@L4.0
Format settings, CABAC           : Yes
Format settings, ReFrames        : 8 frames
Format settings, GOP             : M=1, N=2
Muxing mode                      : Header stripping
Codec ID                         : V_MPEG4/ISO/AVC
Duration                         : 23mn 23s
Bit rate                         : 500 Kbps
Width                            : 1 280 pixels
Height                           : 720 pixels
Display aspect ratio             : 16:9
Frame rate mode                  : Variable
Frame rate                       : 23.976 fps
Color space                      : YUV
Chroma subsampling               : 4:2:0
Bit depth                        : 8 bits
Scan type                        : Progressive
Bits/(Pixel*Frame)               : 0.023
Stream size                      : 80.7 MiB (89%)

Audio
ID                               : 2
Format                           : Vorbis
Format settings, Floor           : 1
Codec ID                         : A_VORBIS
Duration                         : 23mn 23s
Bit rate                         : 48.0 Kbps
Channel(s)                       : 2 channels
Sampling rate                    : 48.0 KHz
Compression mode                 : Lossy
Stream size                      : 8.03 MiB (9%)
Writing library                  : aoTuV Beta 5 (UTC 2006-10-24)
Language                         : English


Visit http://www.minirlss.net - The No. 1 source for minimkvs for tv series in both 720p and 480p quality for latest updates and more....

Screenshots added.

Enjoy and pls seed back		
